<svg width="109" height="39" viewBox="0 0 109 39" fill="none" xmlns="http://www.w3.org/2000/svg">
                <path fill-rule="evenodd" clip-rule="evenodd" d="M2.83782 13.9001L10.5164 1.75264L18.1949 13.9001L18.0153 13.6341C19.0032 15.0528 19.542 16.7818 19.542 18.6438C19.542 23.5649 15.5007 27.5993 10.4715 27.5993C5.48714 27.5993 1.4458 23.6092 1.4458 18.6438C1.4458 16.7818 2.02955 15.0528 3.01743 13.5898L2.83782 13.9001Z" fill="white"></path>
                <path fill-rule="evenodd" clip-rule="evenodd" d="M10.6961 10.7081C10.6961 10.7081 11.3247 10.8854 12.0432 11.5947C12.4922 12.1268 12.7616 12.6588 12.7616 13.3681C12.8963 13.6341 13.076 13.7671 13.1658 13.9444C13.1658 13.5454 13.1209 13.2351 13.2556 12.8361C13.4352 12.3928 13.6597 12.1268 14.0189 11.8607C14.1536 12.2154 14.3333 12.5258 14.2884 13.0134C14.1985 13.8114 13.6597 14.3434 13.5699 14.4321C13.4801 14.5208 13.974 15.0084 14.2435 15.4961C14.3333 14.6538 14.7374 14.0331 15.3211 13.7671C15.5457 14.2548 15.5457 14.3878 15.5008 14.7424C15.4559 15.1415 15.3211 15.3188 15.1415 15.6735C15.0068 15.8951 14.917 15.9838 14.7374 16.1611C14.7374 16.1611 15.1864 16.7818 15.411 17.2251C15.4559 16.6931 15.7702 15.8508 16.5784 15.4961C16.6683 15.7621 16.803 16.2498 16.6683 16.6488C16.3988 17.3581 15.9498 17.7571 15.8151 17.8901C15.9947 18.3778 16.2641 19.2202 16.2641 19.2202C16.3988 18.8212 16.5784 18.6438 16.9377 18.3335C17.1173 18.2005 17.701 17.9788 17.701 17.9788C17.701 17.9788 17.7459 18.3778 17.701 18.5995C17.6112 19.0428 17.3867 19.3088 17.0724 19.6192C16.8479 19.8408 16.4437 19.9738 16.4437 20.0625C16.4437 20.5058 16.4886 20.9048 16.4437 21.3039C16.8479 20.8605 16.8479 20.8162 17.252 20.6388C17.6112 20.4615 18.2848 20.3728 18.2848 20.4615C18.2848 20.5945 18.1501 20.9492 18.0603 21.1265C17.8358 21.4369 17.7909 21.5255 17.3418 21.8359C16.7581 22.1905 16.4437 22.1462 16.3988 22.2349C15.9498 23.4319 15.5906 24.2742 14.6027 25.2496C13.031 26.7126 11.2349 27.2446 9.88779 27.3776L8.58558 27.4219C8.45086 27.3776 8.31615 27.3776 8.18144 27.3333L7.6875 26.9786C10.9655 27.1559 14.468 26.1806 15.9947 22.2792C15.0966 21.9689 14.4231 21.6585 14.1087 20.7275C14.1087 20.7275 14.6925 20.6832 15.0517 20.7718C15.5008 20.9048 15.7702 21.0822 16.1294 21.3925C16.1743 20.9048 16.1294 20.6388 16.0845 20.1068C15.1415 20.2398 14.1985 19.8408 13.8393 19.0872C14.1087 18.9098 14.3782 18.9098 14.6925 18.9098C15.1864 18.9098 15.5457 19.0428 15.9498 19.3088C15.9498 19.2202 15.7253 18.4665 15.5457 18.0231C15.2762 18.1562 14.9619 18.1561 14.6925 18.1561C14.0638 18.1561 13.3454 17.8901 13.1209 17.4025C13.3903 17.2251 13.9291 17.0035 14.4231 17.1365C14.7823 17.2251 14.8272 17.1808 15.1864 17.4025C15.2762 17.4468 14.6476 16.4715 14.5129 16.3385C14.4231 16.2498 14.1536 16.6045 13.525 16.6045C12.9412 16.6045 12.3126 16.3828 12.0432 15.9838C12.3126 15.6735 12.6269 15.5848 13.031 15.4961C13.3903 15.4518 13.6597 15.4518 14.0189 15.5405C13.7944 15.1415 13.5699 14.8754 13.3903 14.6094C13.3454 14.5651 12.7616 14.9641 12.3126 14.9198C11.7737 14.8754 11.19 14.6538 10.8308 14.2548C11.1451 13.9001 11.639 13.8558 11.9983 13.8114C12.4473 13.8114 12.6269 13.9888 13.031 14.0774C12.8065 13.8114 12.7616 13.6784 12.6269 13.5011C12.3126 13.3681 11.639 13.0578 11.5043 12.8361C11.1451 12.3484 11.0104 12.2154 10.8757 11.7277C10.741 11.3287 10.6961 11.1071 10.6961 10.7081Z" fill="#119D4E"></path>
                <path d="M10.6385 1.17689L10.4262 0.836892L10.2143 1.1771L2.56791 13.4502C1.51828 15.004 0.971191 16.8307 0.971191 18.7018C0.971191 23.9108 5.21876 28.1596 10.4265 28.1596C15.6361 28.1596 19.8361 23.9092 19.8817 18.704V18.7018C19.8817 16.8289 19.3336 15.0478 18.3308 13.4968L10.6385 1.17689ZM17.3733 13.94L17.3732 13.9401L17.3781 13.9474L17.5539 14.2112C17.5542 14.2117 17.5546 14.2122 17.5549 14.2127C18.4161 15.5486 18.8481 17.1018 18.8481 18.7018C18.8481 23.3679 15.0466 27.1703 10.382 27.1703C5.71738 27.1703 1.91589 23.3679 1.91589 18.7018C1.91589 17.1031 2.34719 15.5512 3.2069 14.2161L3.42579 13.9096L3.43037 13.9032L3.43454 13.8965L10.4254 2.67349L17.3733 13.94Z" fill="#039EDA" stroke="#039EDA" stroke-width="0.5"></path>
                <path fill-rule="evenodd" clip-rule="evenodd" d="M39.9068 20.3977H31.1871V20.6186H24.0166V27.4233H37.5609C39.7297 27.4233 39.8625 25.1256 39.8625 23.3581V20.3977H39.9068Z" fill="#995624"></path>
                <path fill-rule="evenodd" clip-rule="evenodd" d="M39.9064 13.6814H31.1868V20.6186H30.7441V20.7954H39.9064V13.6814Z" fill="#6DCFF6"></path>
                <path d="M39.9067 7.18605H31.187V14.4767H39.9067V7.18605Z" fill="#71BE45"></path>
                <path d="M39.9067 1.53023H31.187V8.20232H39.9067V1.53023Z" fill="#FAEE48"></path>
                <path d="M37.5607 27.6H23.8394V20.4419H31.0098V1.35349H40.0394V23.3581C40.0836 24.7279 40.0836 27.6 37.5607 27.6ZM24.1935 27.2465H37.5607C39.4639 27.2465 39.7295 25.3907 39.7295 23.3581V1.70698H31.3639V20.8395H24.1935V27.2465Z" fill="#061D10"></path>
                <path fill-rule="evenodd" clip-rule="evenodd" d="M52.6097 14.3H55.1769L53.8933 8.20232L52.6097 14.3ZM56.5933 20.9721H51.1491L49.7327 27.4233H40.8359L46.4572 1.53023H61.2851L66.8622 27.4233H58.0097L56.5933 20.9721Z" fill="#6DCFF6"></path>
                <path fill-rule="evenodd" clip-rule="evenodd" d="M65.3574 20.3977H42.3853L41.0574 26.6721L40.8804 27.4233H49.7771L51.1492 20.9721H56.5935L57.3459 24.3302L58.0099 27.4233H66.8623L65.623 21.7233L65.3574 20.3977Z" fill="#995624"></path>
                <path fill-rule="evenodd" clip-rule="evenodd" d="M63.8964 13.6814H55.0439L55.1767 14.3H52.6095L52.7423 13.6814H43.8456L42.2964 20.7954H65.4456L63.8964 13.6814Z" fill="#6DCFF6"></path>
                <path fill-rule="evenodd" clip-rule="evenodd" d="M53.8935 8.24651L55.1771 14.3442H52.6099L53.8935 8.24651ZM62.5247 7.18605H45.2624L43.7132 14.3442L43.6689 14.5209H64.0739L62.5247 7.18605Z" fill="#71BE45"></path>
                <path fill-rule="evenodd" clip-rule="evenodd" d="M45.041 8.20232H62.7459L61.2853 1.53023H46.5017L45.041 8.20232Z" fill="#FAEE48"></path>
                <path d="M40.6587 27.6L46.3243 1.35349H61.4177L67.039 27.6H57.8325L56.4603 21.1488H51.2816L49.8653 27.6H40.6587ZM58.1423 27.2465H66.6407L61.1521 1.66279H46.6341L41.1013 27.2465H49.6439L51.0603 20.7954H56.7702L58.1423 27.2465ZM55.398 14.4767H52.3882L53.7161 8.20233H54.0259L55.398 14.4767ZM52.8308 14.1674H54.9997L53.9374 9.04186L52.8308 14.1674Z" fill="#061D10"></path>
                <path d="M77.2643 20.3977H68.5889V27.4233H77.2643V20.3977Z" fill="#995624"></path>
                <path d="M77.2643 13.6814H68.5889V20.7954H77.2643V13.6814Z" fill="#6DCFF6"></path>
                <path d="M77.2643 7.18605H68.5889V14.4767H77.2643V7.18605Z" fill="#71BE45"></path>
                <path d="M77.2643 1.53023H68.5889V8.20232H77.2643V1.53023Z" fill="#FAEE48"></path>
                <path d="M77.4411 27.6H68.4116V1.35349H77.4411V27.6ZM68.7215 27.2465H77.087V1.66279H68.7215V27.2465Z" fill="#061D10"></path>
                <path fill-rule="evenodd" clip-rule="evenodd" d="M101.431 20.3977H89.2148L94.3493 27.4233H101.431V20.3977Z" fill="#995624"></path>
                <path d="M87.8872 20.3977H79.1675V27.4233H87.8872V20.3977Z" fill="#995624"></path>
                <path fill-rule="evenodd" clip-rule="evenodd" d="M101.431 13.6814H79.1675V20.7954H87.8429V19.2488H88.374L89.5249 20.7954H101.431V13.6814Z" fill="#6DCFF6"></path>
                <path fill-rule="evenodd" clip-rule="evenodd" d="M101.431 7.18605H92.7117V9.70465H92.1806L90.3216 7.18605H79.1675V14.4767H101.431V7.18605Z" fill="#71BE45"></path>
                <path fill-rule="evenodd" clip-rule="evenodd" d="M79.1675 8.20232H91.074L86.2494 1.53023H79.1675V8.20232Z" fill="#FAEE48"></path>
                <path d="M101.387 1.53023H92.7114V8.20232H101.387V1.53023Z" fill="#FAEE48"></path>
                <path d="M101.564 27.6H94.2607L88.2853 19.4256H88.0197V27.6H78.9902V1.35349H86.3378L92.2689 9.52791H92.5788V1.35349H101.608V27.6H101.564ZM94.4378 27.2465H101.254V1.66279H92.8886V9.83721H92.0476L86.1165 1.66279H79.3001V27.2465H87.6656V19.0721H88.4181L94.4378 27.2465Z" fill="#061D10"></path>
                <path fill-rule="evenodd" clip-rule="evenodd" d="M106.388 1.35349C106.787 1.35349 107.141 1.44186 107.495 1.66279C107.849 1.83954 108.159 2.14884 108.336 2.50233C108.557 2.85582 108.646 3.25349 108.646 3.65116C108.646 4.04884 108.557 4.40233 108.336 4.8C108.159 5.15349 107.849 5.46279 107.495 5.63954C107.141 5.81628 106.742 5.94884 106.344 5.94884C105.946 5.94884 105.592 5.86047 105.193 5.63954C104.839 5.4186 104.574 5.15349 104.352 4.8C104.131 4.44651 104.042 4.04884 104.042 3.65116C104.042 3.25349 104.131 2.9 104.352 2.50233C104.574 2.14884 104.839 1.83954 105.193 1.66279C105.636 1.44186 105.99 1.35349 106.388 1.35349ZM106.388 1.70698C106.079 1.70698 105.769 1.79535 105.459 1.97209C105.149 2.14884 104.928 2.36977 104.751 2.67907C104.574 2.98837 104.485 3.29768 104.485 3.65116C104.485 3.96047 104.574 4.31395 104.751 4.57907C104.928 4.88837 105.149 5.1093 105.459 5.28605C105.769 5.46279 106.079 5.55116 106.388 5.55116C106.698 5.55116 107.008 5.46279 107.318 5.28605C107.628 5.1093 107.849 4.88837 108.026 4.57907C108.203 4.26977 108.292 3.96047 108.292 3.65116C108.292 3.34186 108.203 2.98837 108.026 2.67907C107.849 2.36977 107.628 2.14884 107.318 1.97209C107.008 1.79535 106.698 1.70698 106.388 1.70698ZM105.37 4.88837H105.769V3.87209H105.99C106.123 3.87209 106.211 3.91628 106.3 3.96047C106.388 4.04884 106.565 4.22558 106.698 4.53488L106.92 4.93256H107.406L107.097 4.44651C106.964 4.22558 106.831 4.04884 106.742 3.96047C106.698 3.91628 106.61 3.87209 106.521 3.82791C106.742 3.82791 106.92 3.73954 107.052 3.60698C107.185 3.47442 107.229 3.29767 107.229 3.12093C107.229 2.98837 107.185 2.85581 107.097 2.76744C107.008 2.63488 106.92 2.5907 106.787 2.54651C106.654 2.50233 106.433 2.50233 106.167 2.50233H105.326V4.88837H105.37ZM105.769 3.47442H106.256C106.477 3.47442 106.654 3.43023 106.742 3.38605C106.831 3.29768 106.875 3.2093 106.875 3.12093C106.875 3.03256 106.875 2.98837 106.831 2.94419C106.787 2.9 106.742 2.85581 106.654 2.81163C106.565 2.76744 106.433 2.76744 106.256 2.76744H105.813V3.47442H105.769Z" fill="white"></path>
                <path fill-rule="evenodd" clip-rule="evenodd" d="M25.964 38.9116C26.805 38.9116 27.4247 38.6907 27.8673 38.2488C28.3542 37.807 28.5755 37.1442 28.5755 36.393C28.5755 35.7302 28.4427 35.2442 28.2214 34.8465C28.0886 34.5814 27.7345 34.3163 27.2919 34.007L26.0083 33.2116C25.5657 32.9465 25.3886 32.6372 25.4329 32.2395C25.4771 31.8419 25.6542 31.6651 26.0525 31.7093C26.3181 31.7093 26.4952 31.8419 26.5837 32.107C26.6279 32.2395 26.6722 32.5046 26.6722 32.9023L28.5755 32.8581C28.6198 32.0186 28.3984 31.3558 27.9558 30.8698C27.5132 30.3837 26.8935 30.1186 26.0525 30.1186C25.2558 30.1186 24.6361 30.2953 24.1935 30.7372C23.7509 31.1349 23.5296 31.7535 23.5296 32.5046C23.5296 33.2116 23.7066 33.786 24.105 34.2279C24.3263 34.493 24.8132 34.8465 25.5657 35.2884C25.9198 35.5093 26.1853 35.686 26.2738 35.7744C26.4952 35.9953 26.6279 36.2163 26.6279 36.5256C26.6279 36.7465 26.5837 36.9674 26.4509 37.1C26.3624 37.2326 26.1853 37.3209 26.0083 37.3209C25.5214 37.3209 25.2558 37.0558 25.2558 36.4814V35.8628H23.3525V36.7907C23.3525 37.4093 23.6181 37.9395 24.0607 38.3372C24.5476 38.7349 25.1673 38.9116 25.964 38.9116ZM31.8952 38.0721V38.6907H33.6657V32.3721H31.8066V36.8791C31.8066 37.1884 31.6296 37.3651 31.3198 37.3651C31.0542 37.3651 30.9214 37.2326 30.9214 36.8791V32.3721H29.0624V37.4977C29.0624 38.4256 29.6378 38.8674 30.7001 38.8674C30.9657 38.8674 31.187 38.7791 31.4525 38.6023L31.4525 38.6023C31.6296 38.4256 31.8066 38.2488 31.8952 38.0721ZM36.4542 30.2512H34.5952V38.6465H36.4542V30.2512ZM40.1722 38.2046L40.305 38.6907V38.6023H42.1198V38.5581C42.0312 38.293 41.987 38.0721 41.987 37.8953V34.0953C41.987 33.3884 41.8099 32.9023 41.4116 32.593C41.0575 32.2837 40.4378 32.1512 39.5525 32.1512C37.8706 32.1512 37.0296 32.9023 37.1181 34.4046L38.9771 34.3605C38.9771 34.007 39.0214 33.786 39.0657 33.6977C39.1542 33.5209 39.3312 33.4326 39.5968 33.4326C39.7296 33.4326 39.8624 33.4767 39.9509 33.6093C40.0394 33.7419 40.0837 33.8744 40.0837 34.0512C40.0837 34.4047 39.8624 34.6256 39.3312 34.8023C38.4902 35.0674 38.0034 35.2442 37.8263 35.3767C37.2509 35.7744 36.9853 36.3488 36.9853 37.1884C36.9853 37.6744 37.1181 38.1163 37.428 38.4256C37.7378 38.7349 38.1804 38.9116 38.6673 38.9116C39.1984 38.9116 39.7296 38.6907 40.1722 38.2046ZM39.287 36.1279C39.6411 35.907 39.9066 35.7744 40.128 35.686V36.614C40.128 37.2326 39.9066 37.4977 39.5083 37.4977C39.1099 37.4977 38.8886 37.3209 38.8886 36.8791C38.8886 36.5698 39.0214 36.3047 39.287 36.1279ZM47.9624 38.6907V34.1837C47.9624 33.8302 47.8296 33.6977 47.564 33.6977C47.2542 33.6977 47.1214 33.8744 47.1214 34.1837V38.6907H45.2624V34.2279C45.1738 33.8744 45.0411 33.7419 44.864 33.7419C44.5542 33.7419 44.3771 33.8744 44.3771 34.2279V38.7349H42.5181V32.3721H44.2443V32.9907C44.5542 32.5047 44.9968 32.2395 45.5279 32.2395C45.8378 32.2395 46.1034 32.2837 46.3247 32.4605C46.546 32.593 46.723 32.7698 46.8116 32.9907C47.1214 32.4605 47.564 32.2395 48.0952 32.2395C48.5378 32.2395 48.9361 32.3721 49.246 32.593C49.5558 32.814 49.7329 33.1674 49.7329 33.5651V38.6907H47.9624ZM53.3181 38.2046L53.4509 38.6907V38.6023H55.2657V38.5581C55.1771 38.293 55.1329 38.0721 55.1329 37.8953V34.0953C55.1329 33.3884 54.9558 32.9023 54.5575 32.593C54.2034 32.2837 53.5837 32.1512 52.6984 32.1512C51.0165 32.1512 50.1755 32.9023 50.264 34.4046L52.123 34.3605C52.123 34.007 52.1673 33.786 52.2116 33.6977C52.3001 33.5209 52.4771 33.4326 52.7427 33.4326C52.8755 33.4326 53.0083 33.4767 53.0968 33.6093C53.1853 33.7419 53.2296 33.8744 53.2296 34.0512C53.2296 34.4047 53.0083 34.6256 52.4771 34.8023C51.6361 35.0674 51.1493 35.2442 50.9722 35.3767C50.3968 35.7744 50.1312 36.3488 50.1312 37.1884C50.1312 37.6744 50.264 38.1163 50.5738 38.4256C50.8837 38.7349 51.3263 38.9116 51.8132 38.9116C52.3886 38.9116 52.8755 38.6907 53.3181 38.2046ZM52.4329 36.1279C52.787 35.907 53.0525 35.7744 53.2739 35.686V36.614C53.2739 37.2326 53.0525 37.4977 52.6542 37.4977C52.2116 37.4977 52.0345 37.3209 52.0345 36.8791C52.0345 36.5698 52.1673 36.3047 52.4329 36.1279ZM62.4804 38.2488C62.0378 38.6907 61.4181 38.9116 60.5771 38.9116C59.7804 38.9116 59.1607 38.7349 58.6739 38.3372C58.2312 37.9395 57.9657 37.4093 57.9657 36.7907V35.8628H59.8689V36.4814C59.8689 37.0558 60.1345 37.3209 60.6214 37.3209C60.7984 37.3209 60.9755 37.2326 61.064 37.1C61.1968 36.9674 61.2411 36.7465 61.2411 36.5256C61.2411 36.2163 61.1083 35.9953 60.887 35.7744C60.7985 35.686 60.5329 35.5093 60.1788 35.2884C59.4263 34.8465 58.9394 34.493 58.7181 34.2279C58.3198 33.786 58.1427 33.2116 58.1427 32.5046C58.1427 31.7535 58.364 31.1349 58.8066 30.7372C59.2493 30.2953 59.8689 30.1186 60.6657 30.1186C61.5066 30.1186 62.1263 30.3837 62.5689 30.8698C63.0116 31.3558 63.2329 32.0186 63.1886 32.8581L61.2853 32.9023C61.2853 32.5046 61.2411 32.2395 61.1968 32.107C61.1083 31.8419 60.9312 31.7093 60.6657 31.7093C60.2673 31.6651 60.0902 31.8419 60.046 32.2395C60.0017 32.6372 60.1788 32.9465 60.6214 33.2116L61.905 34.007C62.3476 34.3163 62.7017 34.5814 62.8345 34.8465C63.0558 35.2442 63.1886 35.7302 63.1886 36.393C63.1444 37.1442 62.923 37.807 62.4804 38.2488ZM65.7116 30.2512H63.8525V31.8419H65.7116V30.2512ZM65.7116 32.3721H63.8525V38.6907H65.7116V32.3721ZM70.2706 38.3372C69.828 38.6907 69.2525 38.8674 68.5001 38.8674C66.8624 38.8674 66.0657 38.1605 66.1542 36.7023L67.9247 36.6581C67.8804 37.3209 68.1017 37.586 68.5001 37.586C68.8984 37.586 69.0755 37.4093 69.0755 37.0558C69.0755 36.8791 68.987 36.7465 68.8542 36.614C68.6535 36.5204 68.4729 36.439 68.3139 36.3673L68.3138 36.3673L68.3137 36.3672C67.9468 36.2018 67.6941 36.0878 67.5706 35.9953C67.1279 35.7744 66.7738 35.5535 66.5968 35.3326C66.287 34.9791 66.1542 34.5814 66.1542 34.1395C66.1542 33.5209 66.3755 33.0349 66.7739 32.6814C67.2165 32.3279 67.7919 32.1512 68.5001 32.1512C69.2083 32.1512 69.7837 32.3279 70.2263 32.7256C70.6689 33.0791 70.846 33.6093 70.8017 34.2279L69.0755 34.2721C69.0505 34.0721 69.0254 33.9146 69.0084 33.8074C68.9953 33.7252 68.987 33.6727 68.987 33.6535C68.8984 33.4767 68.7657 33.4326 68.5443 33.4326C68.1903 33.4326 68.0132 33.6093 68.0132 33.9186C68.0132 34.0953 68.1903 34.3163 68.5443 34.493L69.6509 35.0233C70.0493 35.2 70.3148 35.4209 70.5362 35.686C70.8017 35.9953 70.9345 36.393 70.9345 36.8349C70.9345 37.4977 70.7132 37.9837 70.2706 38.3372ZM71.5984 37.3209C71.5984 38.293 72.0853 38.7791 73.1034 38.7791C73.3783 38.7791 73.7231 38.7443 74.1066 38.7055L74.2542 38.6907H74.2984V37.3651H74.2542H73.8116C73.546 37.3651 73.4575 37.2326 73.4575 36.9674V33.7419H74.2984V32.3721H73.4575V30.6047H71.5984V32.3721H70.8902V33.786H71.5984V37.3209ZM76.5116 35.8628V36.9233C76.5116 37.3209 76.6886 37.4977 76.9984 37.5419C77.264 37.5419 77.4411 37.4535 77.4853 37.2326C77.4853 37.2153 77.4921 37.1644 77.5029 37.0824C77.5199 36.9544 77.5469 36.7508 77.5739 36.4814L79.4329 36.4372C79.5214 38.0721 78.7247 38.8674 77.087 38.8674C76.3345 38.8674 75.7148 38.6907 75.3165 38.3814C74.8739 38.0279 74.6968 37.5419 74.6968 36.9233V34.4047C74.6968 32.9465 75.5378 32.2395 77.1312 32.2395C77.8837 32.2395 78.4591 32.3721 78.9017 32.6814C79.3443 32.9907 79.5657 33.4768 79.5657 34.0512V35.8628H76.5116ZM77.6624 34.0512C77.6624 33.8744 77.6181 33.7419 77.4853 33.6535C77.3968 33.5209 77.264 33.4768 77.087 33.4768C76.6886 33.4768 76.5116 33.7419 76.5116 34.2721V34.6256H77.6624V34.0512ZM85.4083 34.1837V38.6907H87.1788V33.5651C87.1788 33.1674 87.0017 32.814 86.6919 32.593C86.382 32.3721 85.9837 32.2395 85.5411 32.2395C84.9656 32.2395 84.523 32.4605 84.2132 32.9907C84.1247 32.7698 83.9476 32.593 83.7263 32.4605C83.505 32.2837 83.2394 32.2395 82.9296 32.2395C82.3984 32.2395 81.9558 32.5047 81.646 32.9907V32.3721H79.9197V38.7349H81.7788V34.2279C81.7788 33.8744 81.9558 33.7419 82.2656 33.7419C82.4427 33.7419 82.5755 33.8744 82.664 34.2279V38.6907H84.523V34.1837C84.523 33.8744 84.6558 33.6977 84.9656 33.6977C85.2755 33.6977 85.4083 33.8302 85.4083 34.1837ZM89.923 30.2512H88.064V38.6465H89.923V30.2512ZM92.5345 36.9233V35.8628H95.5886V34.0512C95.5886 33.4768 95.3673 32.9907 94.9247 32.6814C94.482 32.3721 93.9066 32.2395 93.1542 32.2395C91.5607 32.2395 90.7198 32.9465 90.7198 34.4047V36.9233C90.7198 37.5419 90.8968 38.0279 91.3394 38.3814C91.7378 38.6907 92.3575 38.8674 93.1099 38.8674C94.7476 38.8674 95.5443 38.0721 95.4558 36.4372L93.5968 36.4814C93.582 36.6287 93.5722 36.7563 93.564 36.8627V36.8628V36.8629C93.5476 37.0755 93.5378 37.2031 93.5083 37.2326C93.464 37.4535 93.287 37.5419 93.0214 37.5419C92.7116 37.4977 92.5345 37.3209 92.5345 36.9233ZM93.464 33.6535C93.5968 33.7419 93.6411 33.8744 93.6411 34.0512V34.6256H92.4902V34.2721C92.4902 33.7419 92.6673 33.4768 93.0657 33.4768C93.2427 33.4768 93.3755 33.5209 93.464 33.6535ZM98.5984 34.2279C98.2886 34.2279 98.1116 34.2721 98.023 34.3605C97.9345 34.4488 97.8902 34.5814 97.8902 34.8023V38.6907H96.0312V32.3721H97.7575V33.1233C98.023 32.5047 98.4657 32.1954 99.0853 32.1954H99.1296V34.2721H99.0853C99.051 34.2721 99.0034 34.2655 98.9451 34.2573C98.853 34.2445 98.734 34.2279 98.5984 34.2279ZM101.608 30.2512H99.7493V31.8419H101.608V30.2512ZM101.608 32.3721H99.7493V38.6907H101.608V32.3721Z" fill="white"></path>
            </svg>
