<svg width="46" height="36" viewBox="0 0 46 36" fill="none" xmlns="http://www.w3.org/2000/svg">
<g clip-path="url(#clip0)">
<path d="M16.7812 2.98071H29.219V24.8931H16.7812V2.98071Z" fill="#FF5F00"/>
<path d="M8.37142 35.9226V33.5998C8.37142 32.7092 7.81851 32.1287 6.87079 32.1287C6.39703 32.1287 5.88369 32.2835 5.52827 32.7868C5.252 32.3609 4.85719 32.1287 4.2649 32.1287C3.86991 32.1287 3.47528 32.2447 3.15926 32.6706V32.2061H2.33008V35.9226H3.15926V33.8707C3.15926 33.2127 3.51468 32.9029 4.06758 32.9029C4.62013 32.9029 4.89677 33.2513 4.89677 33.8707V35.9226H5.72595V33.8707C5.72595 33.2127 6.12057 32.9029 6.63391 32.9029C7.18682 32.9029 7.46309 33.2513 7.46309 33.8707V35.9226H8.37142ZM20.651 32.2061H19.3087V31.0834H18.4795V32.2061H17.7293V32.9415H18.4793V34.6451C18.4793 35.4969 18.8348 36 19.7825 36C20.1379 36 20.5325 35.884 20.8091 35.7291L20.5721 35.0322C20.3352 35.187 20.0589 35.2258 19.8614 35.2258C19.4666 35.2258 19.3087 34.9936 19.3087 34.6063V32.9415H20.651V32.2061ZM27.6795 32.1285C27.2057 32.1285 26.8899 32.3609 26.6924 32.6706V32.2061H25.8632V35.9226H26.6924V33.8321C26.6924 33.2127 26.9687 32.8642 27.482 32.8642C27.6399 32.8642 27.8374 32.903 27.9953 32.9417L28.2322 32.1675C28.0743 32.1287 27.8374 32.1287 27.6795 32.1287V32.1285ZM17.058 32.5158C16.6631 32.2447 16.1103 32.1287 15.518 32.1287C14.5705 32.1287 13.9388 32.5932 13.9388 33.3288C13.9388 33.9483 14.4126 34.2966 15.2418 34.4128L15.6366 34.4516C16.0709 34.5289 16.3078 34.6451 16.3078 34.8387C16.3078 35.1096 15.992 35.3032 15.4391 35.3032C14.8863 35.3032 14.452 35.1096 14.1755 34.9161L13.7807 35.5355C14.2151 35.8452 14.8074 36 15.3995 36C16.5051 36 17.137 35.4969 17.137 34.7999C17.137 34.1418 16.6237 33.7933 15.8339 33.6772L15.4391 33.6384C15.0837 33.5996 14.8074 33.5224 14.8074 33.2901C14.8074 33.0191 15.0837 32.8642 15.518 32.8642C15.992 32.8642 16.4657 33.0577 16.7026 33.1739L17.058 32.5158ZM39.0907 32.1287C38.6168 32.1287 38.3009 32.3609 38.1034 32.6706V32.2061H37.2743V35.9226H38.1034V33.8321C38.1034 33.2127 38.3799 32.8642 38.8931 32.8642C39.0512 32.8642 39.2486 32.903 39.4066 32.9417L39.6435 32.1675C39.4855 32.1287 39.2486 32.1287 39.0907 32.1287ZM28.5087 34.0643C28.5087 35.187 29.2983 36 30.5224 36C31.0752 36 31.47 35.884 31.8648 35.5743L31.47 34.9161C31.1541 35.1484 30.8383 35.2644 30.4829 35.2644C29.8116 35.2644 29.3379 34.7999 29.3379 34.0643C29.3379 33.3676 29.8116 32.9029 30.4829 32.8642C30.8383 32.8642 31.1541 32.9803 31.47 33.2127L31.8648 32.5546C31.47 32.2447 31.0752 32.1287 30.5224 32.1287C29.2983 32.1287 28.5087 32.9417 28.5087 34.0643ZM36.1688 34.0643V32.2061H35.3396V32.6706C35.0632 32.3223 34.6684 32.1287 34.155 32.1287C33.089 32.1287 32.2598 32.9417 32.2598 34.0643C32.2598 35.187 33.089 36 34.155 36C34.7078 36 35.1027 35.8066 35.3396 35.4581V35.9226H36.1688V34.0643ZM33.1283 34.0643C33.1283 33.4062 33.5627 32.8642 34.2734 32.8642C34.9446 32.8642 35.4186 33.3676 35.4186 34.0643C35.4186 34.7225 34.9446 35.2644 34.2734 35.2644C33.5627 35.2256 33.1283 34.7225 33.1283 34.0643ZM23.2177 32.1287C22.1121 32.1287 21.3223 32.9029 21.3223 34.0643C21.3223 35.2258 22.1119 36 23.2571 36C23.8099 36 24.3628 35.8452 24.7971 35.4969L24.4021 34.9161C24.0863 35.1484 23.6915 35.3032 23.2967 35.3032C22.7834 35.3032 22.27 35.071 22.1515 34.4126H24.9551V34.1031C24.9946 32.9029 24.2838 32.1287 23.2176 32.1287H23.2177ZM23.2177 32.8254C23.7309 32.8254 24.0865 33.1353 24.1653 33.716H22.1911C22.27 33.2127 22.6254 32.8254 23.2177 32.8254ZM43.7894 34.0643V30.7349H42.9602V32.6706C42.6837 32.3223 42.2889 32.1287 41.7756 32.1287C40.7095 32.1287 39.8803 32.9417 39.8803 34.0643C39.8803 35.187 40.7095 36 41.7756 36C42.3285 36 42.7233 35.8066 42.9602 35.4581V35.9226H43.7894V34.0643ZM40.7491 34.0643C40.7491 33.4062 41.1833 32.8642 41.8941 32.8642C42.5654 32.8642 43.0391 33.3676 43.0391 34.0643C43.0391 34.7225 42.5654 35.2644 41.8941 35.2644C41.1833 35.2256 40.7491 34.7225 40.7491 34.0643ZM13.0305 34.0643V32.2061H12.2013V32.6706C11.9248 32.3223 11.53 32.1287 11.0167 32.1287C9.95064 32.1287 9.12146 32.9417 9.12146 34.0643C9.12146 35.187 9.95064 36 11.0167 36C11.5696 36 11.9644 35.8066 12.2013 35.4581V35.9226H13.0305V34.0643ZM9.95064 34.0643C9.95064 33.4062 10.385 32.8642 11.0957 32.8642C11.7669 32.8642 12.2409 33.3676 12.2409 34.0643C12.2409 34.7225 11.7669 35.2644 11.0957 35.2644C10.385 35.2256 9.95064 34.7225 9.95064 34.0643Z" fill="#061D10"/>
<path d="M17.5709 13.9373C17.5709 9.48524 19.703 5.53628 22.9802 2.98106C20.5718 1.1228 17.5315 0.00012207 14.2148 0.00012207C6.357 0.00012207 0 6.23306 0 13.9373C0 21.6414 6.357 27.8746 14.2146 27.8746C17.5313 27.8746 20.5716 26.7519 22.9802 24.8934C19.703 22.377 17.5709 18.3894 17.5709 13.9373Z" fill="#EB001B"/>
<path d="M45.9997 13.9372C45.9997 21.6413 39.6427 27.8744 31.7851 27.8744C28.4684 27.8744 25.4281 26.7518 23.0195 24.8933C26.3363 22.3383 28.429 18.3893 28.429 13.9372C28.429 9.48512 26.2967 5.53616 23.0195 2.98094C25.4279 1.12268 28.4684 0 31.7851 0C39.6427 0 45.9999 6.27174 45.9999 13.9372H45.9997Z" fill="#F79E1B"/>
</g>
<defs>
<clipPath id="clip0">
<rect width="46" height="36" fill="white"/>
</clipPath>
</defs>
</svg>
