<svg width="14" height="14" viewBox="0 0 14 14" fill="none" xmlns="http://www.w3.org/2000/svg">
<g clip-path="url(#clip0)">
<path d="M7.4375 13.5625C10.8202 13.5625 13.5625 10.8202 13.5625 7.4375C13.5625 4.05476 10.8202 1.3125 7.4375 1.3125C4.05476 1.3125 1.3125 4.05476 1.3125 7.4375C1.3125 10.8202 4.05476 13.5625 7.4375 13.5625Z" stroke="#FFA238" stroke-miterlimit="10" stroke-linecap="round" stroke-linejoin="round"/>
<path fill-rule="evenodd" clip-rule="evenodd" d="M7.4375 13.5625C10.8202 13.5625 13.5625 10.8202 13.5625 7.4375C13.5625 4.05476 10.8202 1.3125 7.4375 1.3125C4.05476 1.3125 1.3125 4.05476 1.3125 7.4375C1.3125 10.8202 4.05476 13.5625 7.4375 13.5625ZM4.45895 4.45895C4.65421 4.26368 4.97079 4.26368 5.16605 4.45895L7.64461 6.9375H11.8125C12.0886 6.9375 12.3125 7.16136 12.3125 7.4375C12.3125 7.71364 12.0886 7.9375 11.8125 7.9375H7.4375C7.30489 7.9375 7.17771 7.88482 7.08395 7.79105L4.45895 5.16605C4.26368 4.97079 4.26368 4.65421 4.45895 4.45895ZM7.9375 3.0625C7.9375 2.78636 7.71364 2.5625 7.4375 2.5625C7.16136 2.5625 6.9375 2.78636 6.9375 3.0625V3.9375C6.9375 4.21364 7.16136 4.4375 7.4375 4.4375C7.71364 4.4375 7.9375 4.21364 7.9375 3.9375V3.0625ZM7.4375 10.4375C7.71364 10.4375 7.9375 10.6614 7.9375 10.9375V11.8125C7.9375 12.0886 7.71364 12.3125 7.4375 12.3125C7.16136 12.3125 6.9375 12.0886 6.9375 11.8125V10.9375C6.9375 10.6614 7.16136 10.4375 7.4375 10.4375ZM3.0625 6.9375C2.78636 6.9375 2.5625 7.16136 2.5625 7.4375C2.5625 7.71364 2.78636 7.9375 3.0625 7.9375H3.9375C4.21364 7.9375 4.4375 7.71364 4.4375 7.4375C4.4375 7.16136 4.21364 6.9375 3.9375 6.9375H3.0625Z" fill="#FFA238"/>
</g>
<defs>
<clipPath id="clip0">
<rect width="14" height="14" fill="white"/>
</clipPath>
</defs>
</svg>
