<svg width="14" height="14" viewBox="0 0 14 14" fill="none" xmlns="http://www.w3.org/2000/svg">
<circle cx="7" cy="7" r="6.125" stroke="#119D4E" stroke-miterlimit="10" stroke-linecap="round" stroke-linejoin="round"/>
<path fill-rule="evenodd" clip-rule="evenodd" d="M7 13.125C10.3827 13.125 13.125 10.3827 13.125 7C13.125 3.61726 10.3827 0.875 7 0.875C3.61726 0.875 0.875 3.61726 0.875 7C0.875 10.3827 3.61726 13.125 7 13.125ZM10.842 5.17727C11.0434 4.9884 11.0536 4.67199 10.8648 4.47053C10.6759 4.26907 10.3595 4.25887 10.158 4.44773L5.83333 8.50213L3.84197 6.63523C3.64051 6.44637 3.3241 6.45657 3.13523 6.65803C2.94637 6.85949 2.95657 7.1759 3.15803 7.36477L5.49136 9.55227C5.68369 9.73258 5.98298 9.73258 6.1753 9.55227L10.842 5.17727Z" fill="#119D4E"/>
</svg>
