<svg width="15" height="14" viewBox="0 0 15 14" fill="none" xmlns="http://www.w3.org/2000/svg">
<g clip-path="url(#clip0)">
<circle cx="7.5" cy="7" r="6.125" stroke="#EA0000" stroke-miterlimit="10" stroke-linecap="round" stroke-linejoin="round"/>
<path fill-rule="evenodd" clip-rule="evenodd" d="M7.5 13.125C10.8827 13.125 13.625 10.3827 13.625 7C13.625 3.61726 10.8827 0.875 7.5 0.875C4.11726 0.875 1.375 3.61726 1.375 7C1.375 10.3827 4.11726 13.125 7.5 13.125ZM10.0944 4.48082C10.2897 4.67608 10.2897 4.99266 10.0944 5.18792L8.28232 6.99999L10.0944 8.81207C10.2897 9.00733 10.2897 9.32391 10.0944 9.51917C9.89913 9.71444 9.58255 9.71444 9.38729 9.51917L7.57522 7.7071L5.76314 9.51917C5.56788 9.71444 5.2513 9.71444 5.05604 9.51917C4.86078 9.32391 4.86078 9.00733 5.05604 8.81207L6.86811 6.99999L5.05604 5.18792C4.86078 4.99266 4.86078 4.67608 5.05604 4.48082C5.2513 4.28555 5.56788 4.28555 5.76314 4.48082L7.57522 6.29289L9.38729 4.48082C9.58255 4.28555 9.89913 4.28555 10.0944 4.48082Z" fill="#EA0000"/>
</g>
<defs>
<clipPath id="clip0">
<rect width="14" height="14" fill="white" transform="translate(0.5)"/>
</clipPath>
</defs>
</svg>
