<svg width="14" height="14" viewBox="0 0 14 14" fill="none" xmlns="http://www.w3.org/2000/svg">
<g clip-path="url(#clip0)">
<path fill-rule="evenodd" clip-rule="evenodd" d="M4.375 5.25H10.5L13.5625 6.125V11.8125H8.26874C8.06606 12.811 7.18329 13.5625 6.125 13.5625C5.06671 13.5625 4.18394 12.811 3.98126 11.8125H0.4375V0.4375H4.375V5.25ZM4.375 0.4375V0H8.50477L8.67104 0.4375H4.375ZM8.67104 0.4375L10.5 5.25L8.75 0.4375H8.67104Z" fill="#039EDA"/>
<path d="M4.375 5.25H3.875C3.875 5.52614 4.09886 5.75 4.375 5.75V5.25ZM13.5625 6.125H14.0625C14.0625 5.90176 13.9145 5.70557 13.6999 5.64424L13.5625 6.125ZM13.5625 11.8125V12.3125C13.8386 12.3125 14.0625 12.0886 14.0625 11.8125H13.5625ZM8.26874 11.8125V11.3125C8.03094 11.3125 7.82604 11.48 7.77874 11.713L8.26874 11.8125ZM3.98126 11.8125L4.47126 11.713C4.42396 11.48 4.21906 11.3125 3.98126 11.3125V11.8125ZM0.4375 11.8125H-0.0625C-0.0625 12.0886 0.161358 12.3125 0.4375 12.3125L0.4375 11.8125ZM0.4375 0.4375V-0.0625C0.161358 -0.0625 -0.0625 0.161358 -0.0625 0.4375H0.4375ZM4.375 0V-0.5C4.09886 -0.5 3.875 -0.276142 3.875 0L4.375 0ZM8.50477 0L8.97215 -0.177627C8.8984 -0.371699 8.71238 -0.5 8.50477 -0.5V0ZM8.75 0.4375L9.2199 0.266628C9.14804 0.0690339 8.96025 -0.0625 8.75 -0.0625V0.4375ZM10.5 4.75H4.375V5.75H10.5V4.75ZM10.3626 5.73076L13.4251 6.60576L13.6999 5.64424L10.6374 4.76924L10.3626 5.73076ZM13.0625 6.125V11.8125H14.0625V6.125H13.0625ZM13.5625 11.3125H8.26874V12.3125H13.5625V11.3125ZM6.125 14.0625C7.42577 14.0625 8.5097 13.1389 8.75875 11.912L7.77874 11.713C7.62242 12.4831 6.94082 13.0625 6.125 13.0625V14.0625ZM3.49125 11.912C3.7403 13.1389 4.82423 14.0625 6.125 14.0625V13.0625C5.30918 13.0625 4.62758 12.4831 4.47126 11.713L3.49125 11.912ZM3.98126 11.3125H0.4375V12.3125H3.98126V11.3125ZM0.9375 11.8125V0.4375H-0.0625V11.8125H0.9375ZM0.4375 0.9375H4.375V-0.0625H0.4375V0.9375ZM4.875 5.25V0.4375H3.875V5.25H4.875ZM4.875 0.4375V0H3.875V0.4375H4.875ZM4.375 0.5H8.50477V-0.5H4.375V0.5ZM8.03738 0.177627L8.20365 0.615127L9.13842 0.259873L8.97215 -0.177627L8.03738 0.177627ZM4.375 0.9375H8.67104V-0.0625H4.375V0.9375ZM8.20365 0.615127L10.0326 5.42763L10.9674 5.07237L9.13842 0.259873L8.20365 0.615127ZM8.2801 0.608372L10.0301 5.42087L10.9699 5.07913L9.2199 0.266628L8.2801 0.608372ZM8.67104 0.9375H8.75V-0.0625H8.67104V0.9375Z" fill="#039EDA"/>
</g>
<defs>
<clipPath id="clip0">
<rect width="14" height="14" fill="white"/>
</clipPath>
</defs>
</svg>
