<svg width="64" height="64" viewBox="0 0 64 64" fill="none" xmlns="http://www.w3.org/2000/svg">
<g filter="url(#filter0_d)">
<rect x="10" y="5" width="44" height="44" rx="8" fill="#EA0000"/>
<path d="M33.875 17.625H23.875V36.375H40.125V23.875H33.875V17.625Z" stroke="white" stroke-miterlimit="10" stroke-linecap="round" stroke-linejoin="round"/>
<mask id="path-3-inside-1" fill="white">
<path fill-rule="evenodd" clip-rule="evenodd" d="M23.875 17.625H33.875V23.875H40.125V36.375H23.875V17.625ZM32.5037 26.4471C32.8686 26.9071 33.2732 27.4173 33.6828 27.8743C33.799 27.8708 33.9113 27.8693 34.02 27.8691C35.5309 27.8691 36.5487 28.1907 36.8859 28.775C37.0352 29.0339 37.0381 29.3258 36.894 29.5759C36.703 29.907 36.2937 30.1047 35.7984 30.1047C35.6789 30.1047 35.5566 30.0933 35.4342 30.0705C34.8264 29.9583 34.1667 29.5087 33.3601 28.6563C33.1608 28.6675 32.9538 28.6835 32.7453 28.7037C32.2844 28.7483 31.3776 28.8656 30.4591 29.1526C30.0151 29.9533 29.1874 31.3349 28.5536 31.7496C28.3025 31.9133 28.0432 32 27.8033 32C27.4588 32 27.1815 31.8236 27.0616 31.5278C26.8669 31.0504 27.1389 30.4013 27.8083 29.7475C28.3207 29.2463 29.0346 28.8332 29.9303 28.519C30.4006 27.6433 30.8264 26.7235 31.1318 25.923C30.4473 24.8413 30.3306 23.5334 30.5714 22.7948C30.733 22.2994 31.0156 22.1118 31.2243 22.0418C31.5157 21.9437 31.8255 22.0212 32.0318 22.2434C32.3372 22.5719 32.4502 23.2236 32.3767 24.2353C32.3478 24.6324 32.2182 25.1612 31.9915 25.8074L32.0029 25.8212C32.1577 26.0106 32.3232 26.219 32.4962 26.4376L32.5037 26.4471ZM27.8031 31.2318C27.8899 31.2318 28.0131 31.1851 28.133 31.1068C28.3878 30.9402 28.8158 30.3928 29.2914 29.627C28.9145 29.8258 28.5961 30.0505 28.3444 30.2967C27.8083 30.8209 27.754 31.152 27.7691 31.2285C27.7754 31.2301 27.7866 31.2318 27.8031 31.2318ZM31.469 22.77C31.4258 22.7845 31.3565 22.862 31.3006 23.0333C31.1463 23.5066 31.2166 24.2399 31.4727 24.8999C31.551 24.6129 31.5975 24.3713 31.6113 24.1802C31.6907 23.0845 31.5135 22.8161 31.4718 22.7692C31.471 22.7694 31.4701 22.7698 31.469 22.77ZM30.9474 28.2243C31.6411 28.0599 32.2629 27.979 32.6712 27.9397L32.7198 27.9353C32.4314 27.5924 32.1531 27.2413 31.9045 26.9278L31.8946 26.9153C31.8196 26.8202 31.7457 26.7274 31.6736 26.637C31.4655 27.1419 31.2164 27.6867 30.9474 28.2243ZM36.229 29.1921C36.2319 29.1869 36.2321 29.179 36.2207 29.1592C36.124 28.9922 35.6414 28.7041 34.4473 28.6471C34.8874 29.0377 35.2566 29.2566 35.5732 29.3152C35.6511 29.3297 35.7265 29.3369 35.7973 29.3369C36.051 29.3369 36.1968 29.2481 36.229 29.1921Z"/>
</mask>
<path fill-rule="evenodd" clip-rule="evenodd" d="M23.875 17.625H33.875V23.875H40.125V36.375H23.875V17.625ZM32.5037 26.4471C32.8686 26.9071 33.2732 27.4173 33.6828 27.8743C33.799 27.8708 33.9113 27.8693 34.02 27.8691C35.5309 27.8691 36.5487 28.1907 36.8859 28.775C37.0352 29.0339 37.0381 29.3258 36.894 29.5759C36.703 29.907 36.2937 30.1047 35.7984 30.1047C35.6789 30.1047 35.5566 30.0933 35.4342 30.0705C34.8264 29.9583 34.1667 29.5087 33.3601 28.6563C33.1608 28.6675 32.9538 28.6835 32.7453 28.7037C32.2844 28.7483 31.3776 28.8656 30.4591 29.1526C30.0151 29.9533 29.1874 31.3349 28.5536 31.7496C28.3025 31.9133 28.0432 32 27.8033 32C27.4588 32 27.1815 31.8236 27.0616 31.5278C26.8669 31.0504 27.1389 30.4013 27.8083 29.7475C28.3207 29.2463 29.0346 28.8332 29.9303 28.519C30.4006 27.6433 30.8264 26.7235 31.1318 25.923C30.4473 24.8413 30.3306 23.5334 30.5714 22.7948C30.733 22.2994 31.0156 22.1118 31.2243 22.0418C31.5157 21.9437 31.8255 22.0212 32.0318 22.2434C32.3372 22.5719 32.4502 23.2236 32.3767 24.2353C32.3478 24.6324 32.2182 25.1612 31.9915 25.8074L32.0029 25.8212C32.1577 26.0106 32.3232 26.219 32.4962 26.4376L32.5037 26.4471ZM27.8031 31.2318C27.8899 31.2318 28.0131 31.1851 28.133 31.1068C28.3878 30.9402 28.8158 30.3928 29.2914 29.627C28.9145 29.8258 28.5961 30.0505 28.3444 30.2967C27.8083 30.8209 27.754 31.152 27.7691 31.2285C27.7754 31.2301 27.7866 31.2318 27.8031 31.2318ZM31.469 22.77C31.4258 22.7845 31.3565 22.862 31.3006 23.0333C31.1463 23.5066 31.2166 24.2399 31.4727 24.8999C31.551 24.6129 31.5975 24.3713 31.6113 24.1802C31.6907 23.0845 31.5135 22.8161 31.4718 22.7692C31.471 22.7694 31.4701 22.7698 31.469 22.77ZM30.9474 28.2243C31.6411 28.0599 32.2629 27.979 32.6712 27.9397L32.7198 27.9353C32.4314 27.5924 32.1531 27.2413 31.9045 26.9278L31.8946 26.9153C31.8196 26.8202 31.7457 26.7274 31.6736 26.637C31.4655 27.1419 31.2164 27.6867 30.9474 28.2243ZM36.229 29.1921C36.2319 29.1869 36.2321 29.179 36.2207 29.1592C36.124 28.9922 35.6414 28.7041 34.4473 28.6471C34.8874 29.0377 35.2566 29.2566 35.5732 29.3152C35.6511 29.3297 35.7265 29.3369 35.7973 29.3369C36.051 29.3369 36.1968 29.2481 36.229 29.1921Z" fill="white"/>
<path d="M33.875 17.625H34.875V16.625H33.875V17.625ZM23.875 17.625V16.625H22.875V17.625H23.875ZM33.875 23.875H32.875V24.875H33.875V23.875ZM40.125 23.875H41.125V22.875H40.125V23.875ZM40.125 36.375V37.375H41.125V36.375H40.125ZM23.875 36.375H22.875V37.375H23.875V36.375ZM33.6828 27.8743L32.9382 28.5418L33.2484 28.8879L33.713 28.8739L33.6828 27.8743ZM32.5037 26.4471L33.2872 25.8257L33.2872 25.8257L32.5037 26.4471ZM34.02 27.8691V26.8691L34.018 26.8691L34.02 27.8691ZM36.8859 28.775L37.7522 28.2754L37.752 28.2752L36.8859 28.775ZM36.894 29.5759L37.7602 30.0755L37.7606 30.0749L36.894 29.5759ZM35.4342 30.0705L35.6176 29.0874L35.6156 29.087L35.4342 30.0705ZM33.3601 28.6563L34.0864 27.969L33.7674 27.6319L33.304 27.6579L33.3601 28.6563ZM32.7453 28.7037L32.8415 29.6991L32.8416 29.6991L32.7453 28.7037ZM30.4591 29.1526L30.1609 28.1982L29.7787 28.3176L29.5846 28.6677L30.4591 29.1526ZM28.5536 31.7496L29.0997 32.5873L29.1011 32.5865L28.5536 31.7496ZM27.0616 31.5278L27.9883 31.152L27.9875 31.1502L27.0616 31.5278ZM27.8083 29.7475L28.5071 30.4628L28.5075 30.4624L27.8083 29.7475ZM29.9303 28.519L30.2613 29.4626L30.6276 29.3341L30.8113 28.9921L29.9303 28.519ZM31.1318 25.923L32.0661 26.2796L32.2446 25.8116L31.9768 25.3883L31.1318 25.923ZM30.5714 22.7948L29.6207 22.4848L29.6206 22.4849L30.5714 22.7948ZM31.2243 22.0418L31.5422 22.9899L31.5433 22.9895L31.2243 22.0418ZM32.0318 22.2434L31.2989 22.9238L31.2995 22.9244L32.0318 22.2434ZM32.3767 24.2353L33.3741 24.308L33.3741 24.3077L32.3767 24.2353ZM31.9915 25.8074L31.0479 25.4764L30.8612 26.0085L31.22 26.4437L31.9915 25.8074ZM32.0029 25.8212L32.7771 25.1883L32.7744 25.185L32.0029 25.8212ZM32.4962 26.4376L31.7121 27.0582L31.7127 27.059L32.4962 26.4376ZM28.133 31.1068L28.6799 31.944L28.6802 31.9438L28.133 31.1068ZM29.2914 29.627L30.1409 30.1546L32.0861 27.0224L28.8248 28.7425L29.2914 29.627ZM28.3444 30.2967L29.0435 31.0117L29.0436 31.0116L28.3444 30.2967ZM27.7691 31.2285L26.788 31.4223L26.9121 32.0502L27.5342 32.2006L27.7691 31.2285ZM31.3006 23.0333L30.3499 22.7232L30.3499 22.7233L31.3006 23.0333ZM31.469 22.77L31.2724 21.7896L31.2107 21.8019L31.1511 21.8219L31.469 22.77ZM31.4727 24.8999L30.5404 25.2616L31.6387 28.092L32.4375 25.163L31.4727 24.8999ZM31.6113 24.1802L30.6139 24.108L30.6139 24.1081L31.6113 24.1802ZM31.4718 22.7692L32.2199 22.1055L31.8175 21.6519L31.2292 21.799L31.4718 22.7692ZM32.6712 27.9397L32.5814 26.9437L32.5754 26.9443L32.6712 27.9397ZM30.9474 28.2243L30.0531 27.7768L29.0953 29.6907L31.1779 29.1974L30.9474 28.2243ZM32.7198 27.9353L32.8096 28.9313L34.7192 28.7591L33.4852 27.2917L32.7198 27.9353ZM31.9045 26.9278L31.121 27.5491L31.121 27.5491L31.9045 26.9278ZM31.8946 26.9153L31.1096 27.5348L31.111 27.5365L31.8946 26.9153ZM31.6736 26.637L32.4552 26.0133L31.3961 24.686L30.749 26.256L31.6736 26.637ZM36.2207 29.1592L37.0867 28.6592L37.0861 28.6581L36.2207 29.1592ZM36.229 29.1921L37.0955 29.6913L37.1021 29.6798L37.1084 29.6682L36.229 29.1921ZM34.4473 28.6471L34.4951 27.6482L31.663 27.5129L33.7835 29.395L34.4473 28.6471ZM35.5732 29.3152L35.7561 28.3321L35.7552 28.3319L35.5732 29.3152ZM33.875 16.625H23.875V18.625H33.875V16.625ZM34.875 23.875V17.625H32.875V23.875H34.875ZM40.125 22.875H33.875V24.875H40.125V22.875ZM41.125 36.375V23.875H39.125V36.375H41.125ZM23.875 37.375H40.125V35.375H23.875V37.375ZM22.875 17.625V36.375H24.875V17.625H22.875ZM34.4275 27.2069C34.0415 26.7762 33.6556 26.2902 33.2872 25.8257L31.7202 27.0684C32.0816 27.5241 32.5049 28.0585 32.9382 28.5418L34.4275 27.2069ZM34.018 26.8691C33.9012 26.8693 33.7795 26.8709 33.6526 26.8748L33.713 28.8739C33.8186 28.8707 33.9213 28.8693 34.022 28.8691L34.018 26.8691ZM37.752 28.2752C37.4055 27.6747 36.7929 27.3386 36.1945 27.1494C35.5785 26.9547 34.8361 26.8691 34.02 26.8691V28.8691C34.7149 28.8691 35.2368 28.9442 35.5917 29.0564C35.9642 29.1742 36.0291 29.2911 36.0198 29.2749L37.752 28.2752ZM37.7606 30.0749C38.09 29.5028 38.0721 28.8303 37.7522 28.2754L36.0196 29.2746C36.0135 29.2639 36.0005 29.2341 36 29.1888C35.9995 29.1427 36.0124 29.1029 36.0274 29.0768L37.7606 30.0749ZM35.7984 31.1047C36.5298 31.1047 37.3374 30.8086 37.7602 30.0755L36.0278 29.0763C36.0463 29.0442 36.0592 29.0477 36.0256 29.0639C35.9903 29.0809 35.9159 29.1047 35.7984 29.1047V31.1047ZM35.2509 31.0535C35.4319 31.0873 35.6156 31.1047 35.7984 31.1047V29.1047C35.7422 29.1047 35.6812 29.0993 35.6176 29.0874L35.2509 31.0535ZM32.6337 29.3436C33.4742 30.2319 34.3194 30.8817 35.2528 31.0539L35.6156 29.087C35.3335 29.035 34.8592 28.7856 34.0864 27.969L32.6337 29.3436ZM32.8416 29.6991C33.0377 29.6801 33.2312 29.6651 33.4161 29.6547L33.304 27.6579C33.0903 27.6699 32.8699 27.687 32.6489 27.7084L32.8416 29.6991ZM30.7574 30.1071C31.5828 29.8492 32.4133 29.7405 32.8415 29.6991L32.6491 27.7083C32.1555 27.7561 31.1723 27.8821 30.1609 28.1982L30.7574 30.1071ZM29.1011 32.5865C29.6011 32.2593 30.0631 31.6551 30.4018 31.1621C30.7691 30.6274 31.1045 30.0509 31.3337 29.6376L29.5846 28.6677C29.3698 29.055 29.0693 29.5696 28.7533 30.0296C28.4087 30.5313 28.1399 30.8253 28.0061 30.9128L29.1011 32.5865ZM27.8033 33C28.2808 33 28.7272 32.8302 29.0997 32.5873L28.0074 30.912C27.9455 30.9524 27.8944 30.9754 27.8576 30.9877C27.8208 30.9999 27.803 31 27.8033 31V33ZM26.1348 31.9036C26.4232 32.6147 27.0943 33 27.8033 33V31C27.8029 31 27.8373 31.0007 27.8851 31.0312C27.9353 31.0631 27.9711 31.1097 27.9883 31.152L26.1348 31.9036ZM27.1096 29.0321C26.7126 29.4199 26.3833 29.8532 26.1887 30.317C25.993 30.7838 25.9093 31.3505 26.1356 31.9054L27.9875 31.1502C28.0191 31.2277 27.9741 31.2312 28.0331 31.0906C28.0933 30.9471 28.2347 30.7289 28.5071 30.4628L27.1096 29.0321ZM29.5992 27.5753C28.6085 27.9229 27.7543 28.4016 27.1091 29.0326L28.5075 30.4624C28.8872 30.0911 29.4608 29.7434 30.2613 29.4626L29.5992 27.5753ZM30.1975 25.5665C29.9095 26.3212 29.5025 27.2019 29.0493 28.0458L30.8113 28.9921C31.2986 28.0846 31.7432 27.1257 32.0661 26.2796L30.1975 25.5665ZM29.6206 22.4849C29.2756 23.5433 29.4648 25.1588 30.2868 26.4578L31.9768 25.3883C31.4298 24.5239 31.3857 23.5234 31.5221 23.1047L29.6206 22.4849ZM30.9064 21.0937C30.3997 21.2636 29.881 21.6865 29.6207 22.4848L31.5221 23.1049C31.5415 23.0453 31.5601 23.0087 31.572 22.9887C31.5836 22.9691 31.5905 22.9627 31.5892 22.964C31.5879 22.9652 31.5826 22.9701 31.573 22.9759C31.5638 22.9814 31.5534 22.9862 31.5422 22.9899L30.9064 21.0937ZM32.7647 21.5631C32.2864 21.0478 31.5631 20.8726 30.9053 21.094L31.5433 22.9895C31.5102 23.0007 31.4658 23.0047 31.4176 22.9927C31.3693 22.9806 31.3278 22.9549 31.2989 22.9238L32.7647 21.5631ZM33.3741 24.3077C33.414 23.7582 33.408 23.2533 33.3317 22.8125C33.2564 22.3781 33.0983 21.9219 32.7642 21.5625L31.2995 22.9244C31.2707 22.8934 31.3218 22.9274 31.361 23.1538C31.3991 23.3739 31.4129 23.7007 31.3793 24.1629L33.3741 24.3077ZM32.9351 26.1385C33.1733 25.4595 33.3357 24.8342 33.3741 24.308L31.3794 24.1626C31.3598 24.4307 31.2631 24.8629 31.0479 25.4764L32.9351 26.1385ZM32.7744 25.185L32.763 25.1712L31.22 26.4437L31.2314 26.4575L32.7744 25.185ZM33.2803 25.8169C33.1075 25.5986 32.9375 25.3845 32.7771 25.1883L31.2287 26.4541C31.3779 26.6367 31.5389 26.8395 31.7121 27.0582L33.2803 25.8169ZM33.2872 25.8257L33.2797 25.8162L31.7127 27.059L31.7202 27.0685L33.2872 25.8257ZM27.5862 30.2695C27.5788 30.2744 27.5821 30.2708 27.6012 30.2636C27.6113 30.2598 27.6314 30.2528 27.6608 30.2464C27.6889 30.2402 27.7379 30.2318 27.8031 30.2318V32.2318C28.1732 32.2318 28.4928 32.0662 28.6799 31.944L27.5862 30.2695ZM28.4419 29.0994C28.217 29.4616 28.0117 29.7582 27.8419 29.9753C27.6497 30.2209 27.5646 30.2836 27.5859 30.2697L28.6802 31.9438C28.9563 31.7633 29.2125 31.4691 29.417 31.2079C29.6437 30.9181 29.8902 30.5582 30.1409 30.1546L28.4419 29.0994ZM29.0436 31.0116C29.213 30.8459 29.4481 30.6749 29.7579 30.5115L28.8248 28.7425C28.3808 28.9767 27.9792 29.2551 27.6452 29.5818L29.0436 31.0116ZM28.7501 31.0347C28.7701 31.1357 28.7678 31.2136 28.7655 31.2503C28.7628 31.2939 28.7568 31.3262 28.7524 31.3456C28.7436 31.3847 28.7358 31.3951 28.745 31.3767C28.7632 31.34 28.8363 31.2143 29.0435 31.0117L27.6453 29.5817C27.3165 29.9032 27.0943 30.2052 26.9551 30.4843C26.8856 30.6237 26.8336 30.764 26.802 30.903C26.7759 31.0181 26.7459 31.2088 26.788 31.4223L28.7501 31.0347ZM27.8031 30.2318C27.8557 30.2318 27.9242 30.2372 28.004 30.2565L27.5342 32.2006C27.6266 32.2229 27.7175 32.2318 27.8031 32.2318V30.2318ZM32.2513 23.3435C32.2568 23.3266 32.2492 23.3584 32.2098 23.4149C32.1899 23.4434 32.1541 23.4895 32.0975 23.5399C32.0466 23.5853 31.9437 23.6656 31.7869 23.7182L31.1511 21.8219C30.8275 21.9304 30.6448 22.1627 30.5694 22.2708C30.4705 22.4125 30.4003 22.5687 30.3499 22.7232L32.2513 23.3435ZM32.405 24.5382C32.1957 23.9988 32.1946 23.5173 32.2513 23.3434L30.3499 22.7233C30.0979 23.496 30.2375 24.481 30.5404 25.2616L32.405 24.5382ZM30.6139 24.1081C30.6066 24.2097 30.5774 24.3822 30.508 24.6368L32.4375 25.163C32.5246 24.8436 32.5884 24.533 32.6087 24.2523L30.6139 24.1081ZM30.7238 23.4328C30.5856 23.2771 30.5853 23.1662 30.6043 23.2666C30.6226 23.3639 30.6498 23.6124 30.6139 24.108L32.6087 24.2525C32.6905 23.1234 32.5524 22.4803 32.2199 22.1055L30.7238 23.4328ZM31.6656 23.7505C31.7036 23.7429 31.7353 23.7343 31.7588 23.7272C31.7813 23.7204 31.7987 23.7142 31.8037 23.7125C31.8051 23.712 31.8062 23.7116 31.8064 23.7115C31.807 23.7113 31.8062 23.7116 31.8055 23.7118C31.804 23.7123 31.7988 23.7142 31.7921 23.7165C31.7792 23.7208 31.751 23.7301 31.7145 23.7393L31.2292 21.799C31.1922 21.8083 31.1636 21.8177 31.1503 21.8222C31.1433 21.8246 31.1379 21.8265 31.1362 21.8271C31.1354 21.8274 31.1345 21.8278 31.1349 21.8276C31.135 21.8276 31.136 21.8272 31.1373 21.8268C31.1418 21.8251 31.1587 21.8192 31.1808 21.8125C31.2037 21.8056 31.2349 21.7971 31.2724 21.7896L31.6656 23.7505ZM32.5754 26.9443C32.1355 26.9866 31.4666 27.0736 30.7169 27.2512L31.1779 29.1974C31.8156 29.0463 32.3903 28.9713 32.7669 28.9351L32.5754 26.9443ZM32.6301 26.9394L32.5814 26.9437L32.761 28.9357L32.8096 28.9313L32.6301 26.9394ZM31.121 27.5491C31.3682 27.861 31.6554 28.2232 31.9545 28.5789L33.4852 27.2917C33.2075 26.9615 32.9379 26.6215 32.6881 26.3065L31.121 27.5491ZM31.111 27.5365L31.121 27.5491L32.6881 26.3065L32.6782 26.294L31.111 27.5365ZM30.8919 27.2607C30.9636 27.3506 31.0362 27.4418 31.1096 27.5348L32.6795 26.2957C32.6029 26.1986 32.5278 26.1042 32.4552 26.0133L30.8919 27.2607ZM31.8417 28.6718C32.1206 28.1143 32.38 27.5473 32.5981 27.0181L30.749 26.256C30.551 26.7365 30.3122 27.2591 30.0531 27.7768L31.8417 28.6718ZM35.3546 29.6592C35.3393 29.6326 35.2797 29.5287 35.2494 29.3761C35.2324 29.2905 35.2224 29.1797 35.2396 29.0529C35.2575 28.9214 35.2998 28.808 35.3496 28.716L37.1084 29.6682C37.3871 29.1534 37.1105 28.7004 37.0867 28.6592L35.3546 29.6592ZM34.3996 29.646C34.9287 29.6712 35.246 29.7458 35.4112 29.8044C35.4937 29.8337 35.5233 29.8536 35.5181 29.8502C35.515 29.8482 35.4968 29.8359 35.4705 29.8104C35.4458 29.7866 35.4002 29.7378 35.3553 29.6603L37.0861 28.6581C36.9556 28.4329 36.7704 28.2808 36.6233 28.1833C36.4632 28.0772 36.2793 27.9902 36.0798 27.9195C35.6811 27.778 35.16 27.68 34.4951 27.6482L34.3996 29.646ZM35.7552 28.3319C35.7118 28.3239 35.5111 28.2541 35.1112 27.8992L33.7835 29.395C34.2637 29.8212 34.8015 30.1894 35.3913 30.2985L35.7552 28.3319ZM35.7973 28.3369C35.7936 28.3369 35.7796 28.3365 35.7561 28.3321L35.3903 30.2984C35.5225 30.3229 35.6593 30.3369 35.7973 30.3369V28.3369ZM35.3625 28.693C35.4487 28.5432 35.5513 28.4619 35.5936 28.431C35.6474 28.3917 35.6926 28.3701 35.7211 28.3585C35.7799 28.3347 35.809 28.3369 35.7973 28.3369V30.3369C36.0393 30.3369 36.2681 30.2947 36.4713 30.2125C36.6254 30.1501 36.9155 30.0039 37.0955 29.6913L35.3625 28.693Z" fill="white" mask="url(#path-3-inside-1)"/>
<path d="M36.375 17.625V21.375H40.125" fill="white"/>
<path d="M36.375 17.625V21.375H40.125L36.375 17.625Z" stroke="white" stroke-miterlimit="10" stroke-linecap="round" stroke-linejoin="round"/>
</g>
<defs>
<filter id="filter0_d" x="0" y="0" width="64" height="64" filterUnits="userSpaceOnUse" color-interpolation-filters="sRGB">
<feFlood flood-opacity="0" result="BackgroundImageFix"/>
<feColorMatrix in="SourceAlpha" type="matrix" values="0 0 0 0 0 0 0 0 0 0 0 0 0 0 0 0 0 0 127 0"/>
<feOffset dy="5"/>
<feGaussianBlur stdDeviation="5"/>
<feColorMatrix type="matrix" values="0 0 0 0 0 0 0 0 0 0 0 0 0 0 0 0 0 0 0.1 0"/>
<feBlend mode="normal" in2="BackgroundImageFix" result="effect1_dropShadow"/>
<feBlend mode="normal" in="SourceGraphic" in2="effect1_dropShadow" result="shape"/>
</filter>
</defs>
</svg>
